<svg width="12" height="10" viewBox="0 0 12 10" fill="none" xmlns="http://www.w3.org/2000/svg">
<path d="M4.81469 9.36866C4.76031 9.31536 4.52781 9.11409 4.33656 8.9266C3.13375 7.82743 1.165 4.96002 0.564062 3.45923C0.4675 3.2313 0.263125 2.65506 0.25 2.34719C0.25 2.05217 0.3175 1.77095 0.454375 1.50259C0.645625 1.16806 0.946562 0.899695 1.30187 0.752648C1.54844 0.657988 2.28625 0.51094 2.29937 0.51094C3.10656 0.363893 4.41812 0.283018 5.8675 0.283018C7.24844 0.283018 8.50656 0.363893 9.32594 0.484288C9.33906 0.498073 10.2559 0.64512 10.57 0.805953C11.1437 1.10096 11.5 1.6772 11.5 2.29388L11.5 2.34718C11.4859 2.74881 11.1297 3.59341 11.1166 3.59341C10.5147 5.01332 8.6425 7.81456 7.39844 8.94039C7.39844 8.94039 7.07875 9.25746 6.87906 9.39532C6.59219 9.61037 6.23688 9.71698 5.88156 9.71698C5.485 9.71698 5.11562 9.59659 4.81469 9.36866Z" fill="#60708F"/>
</svg>
