<svg width="44" height="44" viewBox="0 0 44 44" fill="none" xmlns="http://www.w3.org/2000/svg">
<path d="M19 32H25C30 32 32 30 32 25V19C32 14 30 12 25 12H19C14 12 12 14 12 19V25C12 30 14 32 19 32Z" stroke="#9038FF" stroke-width="1.5" stroke-linecap="round" stroke-linejoin="round"/>
<path d="M26.28 23.61C25.15 24.74 23.53 25.09 22.1 24.64L19.51 27.22C19.33 27.41 18.96 27.53 18.69 27.49L17.49 27.33C17.09 27.28 16.73 26.9 16.67 26.51L16.51 25.31C16.47 25.05 16.6 24.68 16.78 24.49L19.36 21.91C18.92 20.48 19.26 18.86 20.39 17.73C22.01 16.11 24.65 16.11 26.28 17.73C27.9 19.34 27.9 21.98 26.28 23.61Z" stroke="#9038FF" stroke-width="1.5" stroke-miterlimit="10" stroke-linecap="round" stroke-linejoin="round"/>
<path d="M20.45 26.28L19.6 25.42" stroke="#9038FF" stroke-width="1.5" stroke-miterlimit="10" stroke-linecap="round" stroke-linejoin="round"/>
<path d="M23.3945 20.7H23.4035" stroke="#9038FF" stroke-width="2" stroke-linecap="round" stroke-linejoin="round"/>
</svg>
