<svg width="30" height="28" viewBox="0 0 30 28" fill="none" xmlns="http://www.w3.org/2000/svg">
<path d="M17.6147 1.78789L17.6032 7.00065L17.5917 12.2134L17.062 11.0033V11.0002L16.3749 22.6048C17.0505 24.1438 17.4113 24.9661 17.4151 24.9692C17.419 24.9723 17.8028 24.9909 18.2672 25.0095C19.6721 25.0654 21.4147 25.1864 22.7389 25.3198C23.046 25.3508 23.307 25.3663 23.3262 25.3539C23.3453 25.3415 23.3492 20.0357 23.3453 13.56L23.3338 1.78789H17.6147V1.78789Z" fill="url(#paint0_linear_36_210)"/>
<path d="M7.26907 1.77229V13.5569C7.26907 20.0387 7.27675 25.3477 7.28827 25.357C7.29978 25.3663 7.79492 25.326 8.39371 25.2732C8.99249 25.2205 9.81773 25.1522 10.2284 25.1243C10.8579 25.0808 12.7464 24.9847 12.9613 24.9816C13.0266 24.9816 13.0304 24.7178 13.0381 19.9891L13.0496 14.9966L13.5064 16.0392C13.5755 16.2005 13.5985 16.2502 13.6676 16.4084L14.3546 4.80687C14.2088 4.47487 14.2856 4.64863 14.1205 4.27008C13.5601 2.98861 13.0842 1.90571 13.065 1.85607L13.0266 1.76919H7.26907V1.77229Z" fill="url(#paint1_linear_36_210)"/>
<path d="M7.26907 1.77229L13.0458 15.0058V14.9996L13.5026 16.0422C16.0397 21.8476 17.4023 24.9628 17.41 24.969C17.4138 24.9721 17.7977 24.9907 18.2621 25.0093C19.667 25.0652 21.4096 25.1862 22.7338 25.3196C23.037 25.3506 23.3019 25.3662 23.3172 25.3537L17.5904 12.2102V12.2133L17.0607 11.0032C16.5425 9.82101 16.1971 9.02979 14.1129 4.27006C13.5525 2.9886 13.0765 1.90571 13.0573 1.85607L13.0189 1.76919H10.144L7.26907 1.77229Z" fill="#E30A17"/>
<defs>
<linearGradient id="paint0_linear_36_210" x1="25.9248" y1="19.4114" x2="16.9641" y2="23.6005" gradientUnits="userSpaceOnUse">
<stop stop-color="#B20610"/>
<stop offset="0.255959" stop-color="#B20610"/>
<stop offset="1" stop-color="#590004"/>
</linearGradient>
<linearGradient id="paint1_linear_36_210" x1="4.49327" y1="6.9397" x2="14.1879" y2="2.45983" gradientUnits="userSpaceOnUse">
<stop stop-color="#B20610"/>
<stop offset="0.255959" stop-color="#B20610"/>
<stop offset="1" stop-color="#590004"/>
</linearGradient>
</defs>
</svg>
