<svg width="333" height="182" viewBox="0 0 333 182" fill="none" xmlns="http://www.w3.org/2000/svg">
<path d="M10.5154 172.768C10.5154 173.519 10.3935 174.216 10.1498 174.859C9.906 175.493 9.56475 176.049 9.126 176.527C8.68725 177.004 8.16563 177.375 7.56113 177.638C6.95663 177.901 6.2985 178.033 5.58675 178.033C4.86525 178.033 4.20225 177.901 3.59775 177.638C3.003 177.375 2.48625 177.004 2.0475 176.527C1.60875 176.049 1.2675 175.493 1.02375 174.859C0.78 174.216 0.658125 173.519 0.658125 172.768C0.658125 172.008 0.78 171.31 1.02375 170.677C1.2675 170.033 1.60875 169.477 2.0475 169.009C2.48625 168.532 3.003 168.161 3.59775 167.898C4.20225 167.635 4.86525 167.503 5.58675 167.503C6.2985 167.503 6.95663 167.635 7.56113 167.898C8.16563 168.161 8.68725 168.532 9.126 169.009C9.56475 169.477 9.906 170.033 10.1498 170.677C10.3935 171.31 10.5154 172.008 10.5154 172.768ZM9.25763 172.768C9.25763 171.969 9.09675 171.262 8.775 170.647C8.463 170.033 8.034 169.551 7.488 169.2C6.942 168.849 6.30825 168.673 5.58675 168.673C4.86525 168.673 4.22663 168.849 3.67088 169.2C3.12488 169.551 2.69588 170.033 2.38388 170.647C2.07188 171.262 1.91588 171.969 1.91588 172.768C1.91588 173.558 2.07188 174.265 2.38388 174.889C2.69588 175.503 3.12488 175.986 3.67088 176.337C4.22663 176.688 4.86525 176.863 5.58675 176.863C6.30825 176.863 6.942 176.688 7.488 176.337C8.034 175.986 8.463 175.503 8.775 174.889C9.09675 174.265 9.25763 173.558 9.25763 172.768ZM15.8021 170.136C16.2993 170.136 16.7478 170.189 17.1476 170.296C17.5473 170.404 17.8642 170.55 18.0982 170.735C18.3322 170.92 18.4492 171.13 18.4492 171.364C18.4492 171.491 18.4053 171.613 18.3176 171.73C18.2298 171.847 18.1128 171.905 17.9666 171.905C17.8301 171.905 17.718 171.881 17.6302 171.832C17.5522 171.783 17.4742 171.72 17.3962 171.642C17.328 171.564 17.2305 171.496 17.1037 171.437C16.9867 171.369 16.8161 171.315 16.5918 171.276C16.3676 171.237 16.1433 171.218 15.9191 171.218C15.3828 171.218 14.91 171.345 14.5005 171.598C14.1007 171.852 13.7838 172.193 13.5498 172.622C13.3158 173.051 13.1988 173.538 13.1988 174.084C13.1988 174.63 13.311 175.118 13.5352 175.547C13.7595 175.976 14.0715 176.317 14.4712 176.571C14.871 176.824 15.3341 176.951 15.8606 176.951C16.2018 176.951 16.4748 176.922 16.6796 176.863C16.8843 176.805 17.055 176.736 17.1915 176.658C17.367 176.561 17.4986 176.463 17.5863 176.366C17.6838 176.268 17.8106 176.22 17.9666 176.22C18.1323 176.22 18.2591 176.273 18.3468 176.38C18.4443 176.488 18.4931 176.619 18.4931 176.775C18.4931 176.951 18.3712 177.136 18.1275 177.331C17.8837 177.526 17.5522 177.692 17.133 177.828C16.7235 177.965 16.2555 178.033 15.729 178.033C14.988 178.033 14.3396 177.862 13.7838 177.521C13.2281 177.17 12.7942 176.697 12.4822 176.103C12.18 175.498 12.0288 174.825 12.0288 174.084C12.0288 173.343 12.1848 172.675 12.4968 172.081C12.8186 171.486 13.2622 171.013 13.8277 170.662C14.3932 170.311 15.0513 170.136 15.8021 170.136ZM19.8028 170.37H23.2397C23.3957 170.37 23.5224 170.423 23.6199 170.53C23.7272 170.638 23.7808 170.764 23.7808 170.911C23.7808 171.067 23.7272 171.198 23.6199 171.306C23.5224 171.403 23.3957 171.452 23.2397 171.452H19.8028C19.6566 171.452 19.5298 171.398 19.4226 171.291C19.3153 171.184 19.2617 171.052 19.2617 170.896C19.2617 170.75 19.3153 170.628 19.4226 170.53C19.5298 170.423 19.6566 170.37 19.8028 170.37ZM21.3384 168.381C21.5042 168.381 21.6407 168.439 21.7479 168.556C21.8552 168.663 21.9088 168.8 21.9088 168.966V176.029C21.9088 176.263 21.9429 176.439 22.0112 176.556C22.0794 176.673 22.1672 176.756 22.2744 176.805C22.3914 176.844 22.5036 176.863 22.6108 176.863C22.7083 176.863 22.7912 176.848 22.8594 176.819C22.9374 176.78 23.0252 176.761 23.1227 176.761C23.2202 176.761 23.3079 176.809 23.3859 176.907C23.4737 176.995 23.5176 177.112 23.5176 177.258C23.5176 177.433 23.4152 177.585 23.2104 177.711C23.0057 177.828 22.7766 177.887 22.5231 177.887C22.3866 177.887 22.2159 177.877 22.0112 177.858C21.8162 177.838 21.6212 177.775 21.4262 177.667C21.2312 177.56 21.0654 177.385 20.9289 177.141C20.8022 176.887 20.7388 176.536 20.7388 176.088V168.966C20.7388 168.8 20.7973 168.663 20.9143 168.556C21.0313 168.439 21.1727 168.381 21.3384 168.381Z" fill="#8B98B1"/>
<path d="M78.4101 167.649C78.5758 167.649 78.7074 167.703 78.8049 167.81C78.9024 167.908 78.9512 168.034 78.9512 168.19V177.273C78.9512 177.458 78.8927 177.609 78.7757 177.726C78.6587 177.833 78.5173 177.887 78.3516 177.887C78.2638 177.887 78.1761 177.872 78.0883 177.843C78.0006 177.804 77.9323 177.755 77.8836 177.697L71.6241 169.419L71.9166 169.243V177.346C71.9166 177.502 71.8629 177.633 71.7557 177.741C71.6582 177.838 71.5266 177.887 71.3608 177.887C71.2048 177.887 71.0781 177.838 70.9806 177.741C70.8831 177.633 70.8343 177.502 70.8343 177.346V168.234C70.8343 168.059 70.8879 167.917 70.9952 167.81C71.1122 167.703 71.2487 167.649 71.4047 167.649C71.4924 167.649 71.5802 167.669 71.6679 167.708C71.7654 167.737 71.8386 167.786 71.8873 167.854L78.0591 176.015L77.8689 176.249V168.19C77.8689 168.034 77.9177 167.908 78.0152 167.81C78.1224 167.703 78.2541 167.649 78.4101 167.649ZM88.5667 174.084C88.5667 174.845 88.396 175.522 88.0548 176.117C87.7233 176.712 87.2699 177.18 86.6947 177.521C86.1292 177.862 85.4905 178.033 84.7788 178.033C84.067 178.033 83.4235 177.862 82.8483 177.521C82.273 177.18 81.8148 176.712 81.4735 176.117C81.142 175.522 80.9763 174.845 80.9763 174.084C80.9763 173.324 81.142 172.646 81.4735 172.051C81.8148 171.457 82.273 170.989 82.8483 170.647C83.4235 170.306 84.067 170.136 84.7788 170.136C85.4905 170.136 86.1292 170.306 86.6947 170.647C87.2699 170.989 87.7233 171.457 88.0548 172.051C88.396 172.646 88.5667 173.324 88.5667 174.084ZM87.3967 174.084C87.3967 173.519 87.2797 173.022 87.0457 172.593C86.8214 172.164 86.5094 171.827 86.1097 171.583C85.7197 171.34 85.276 171.218 84.7788 171.218C84.2815 171.218 83.833 171.34 83.4333 171.583C83.0433 171.827 82.7313 172.164 82.4973 172.593C82.2633 173.022 82.1463 173.519 82.1463 174.084C82.1463 174.64 82.2633 175.132 82.4973 175.561C82.7313 175.99 83.0433 176.332 83.4333 176.585C83.833 176.829 84.2815 176.951 84.7788 176.951C85.276 176.951 85.7197 176.829 86.1097 176.585C86.5094 176.332 86.8214 175.99 87.0457 175.561C87.2797 175.132 87.3967 174.64 87.3967 174.084ZM90.3282 170.194C90.4452 170.194 90.5573 170.228 90.6645 170.296C90.7718 170.355 90.8498 170.443 90.8985 170.56L93.3263 176.263L93.0923 176.38L95.5639 170.574C95.6712 170.311 95.8515 170.184 96.105 170.194C96.2513 170.194 96.378 170.243 96.4853 170.34C96.5925 170.438 96.6462 170.56 96.6462 170.706C96.6462 170.764 96.6364 170.823 96.6169 170.881C96.6072 170.93 96.5925 170.974 96.573 171.013L93.7504 177.507C93.6432 177.75 93.4725 177.877 93.2385 177.887C93.1118 177.897 92.9899 177.872 92.8729 177.814C92.7657 177.745 92.6877 177.643 92.6389 177.507L89.8163 171.028C89.7968 170.989 89.7773 170.945 89.7578 170.896C89.748 170.847 89.7432 170.789 89.7432 170.721C89.7432 170.594 89.7919 170.477 89.8894 170.37C89.9967 170.253 90.1429 170.194 90.3282 170.194Z" fill="#8B98B1"/>
<path d="M154.384 167.649C155.096 167.649 155.72 167.786 156.256 168.059C156.802 168.322 157.255 168.693 157.616 169.17C157.977 169.648 158.245 170.199 158.42 170.823C158.606 171.437 158.698 172.086 158.698 172.768C158.698 173.704 158.537 174.562 158.216 175.342C157.894 176.112 157.416 176.731 156.782 177.199C156.149 177.658 155.349 177.887 154.384 177.887H150.728C150.562 177.887 150.421 177.828 150.304 177.711C150.196 177.594 150.143 177.453 150.143 177.287V168.234C150.143 168.069 150.196 167.932 150.304 167.825C150.421 167.708 150.562 167.649 150.728 167.649H154.384ZM154.238 176.746C154.988 176.746 155.598 176.566 156.066 176.205C156.544 175.844 156.89 175.362 157.104 174.757C157.328 174.153 157.441 173.49 157.441 172.768C157.441 172.242 157.377 171.739 157.25 171.262C157.133 170.774 156.943 170.345 156.68 169.975C156.427 169.604 156.095 169.312 155.686 169.097C155.286 168.883 154.803 168.775 154.238 168.775H151.24L151.357 168.658V176.892L151.269 176.746H154.238ZM164.118 178.033C163.338 178.033 162.656 177.867 162.071 177.536C161.486 177.204 161.027 176.751 160.696 176.176C160.374 175.591 160.213 174.918 160.213 174.157C160.213 173.309 160.379 172.588 160.711 171.993C161.052 171.388 161.491 170.93 162.027 170.618C162.573 170.296 163.148 170.136 163.753 170.136C164.201 170.136 164.635 170.218 165.054 170.384C165.473 170.55 165.844 170.794 166.166 171.115C166.487 171.427 166.746 171.808 166.941 172.256C167.136 172.695 167.238 173.187 167.248 173.733C167.248 173.889 167.189 174.021 167.072 174.128C166.955 174.235 166.819 174.289 166.663 174.289H160.886L160.623 173.28H166.253L166.019 173.485V173.163C165.98 172.763 165.844 172.422 165.61 172.139C165.386 171.847 165.108 171.622 164.776 171.466C164.455 171.31 164.113 171.232 163.753 171.232C163.46 171.232 163.168 171.286 162.875 171.393C162.592 171.491 162.334 171.657 162.1 171.891C161.876 172.115 161.69 172.407 161.544 172.768C161.408 173.129 161.339 173.563 161.339 174.07C161.339 174.635 161.452 175.132 161.676 175.561C161.91 175.99 162.232 176.332 162.641 176.585C163.051 176.829 163.528 176.951 164.074 176.951C164.416 176.951 164.713 176.907 164.966 176.819C165.22 176.731 165.439 176.624 165.625 176.497C165.81 176.361 165.966 176.224 166.093 176.088C166.219 176 166.341 175.956 166.458 175.956C166.604 175.956 166.721 176.005 166.809 176.103C166.907 176.2 166.955 176.317 166.955 176.454C166.955 176.619 166.877 176.766 166.721 176.892C166.448 177.195 166.078 177.463 165.61 177.697C165.142 177.921 164.645 178.033 164.118 178.033ZM172.443 170.136C172.941 170.136 173.389 170.189 173.789 170.296C174.189 170.404 174.505 170.55 174.739 170.735C174.973 170.92 175.09 171.13 175.09 171.364C175.09 171.491 175.047 171.613 174.959 171.73C174.871 171.847 174.754 171.905 174.608 171.905C174.471 171.905 174.359 171.881 174.271 171.832C174.193 171.783 174.115 171.72 174.037 171.642C173.969 171.564 173.872 171.496 173.745 171.437C173.628 171.369 173.457 171.315 173.233 171.276C173.009 171.237 172.785 171.218 172.56 171.218C172.024 171.218 171.551 171.345 171.142 171.598C170.742 171.852 170.425 172.193 170.191 172.622C169.957 173.051 169.84 173.538 169.84 174.084C169.84 174.63 169.952 175.118 170.176 175.547C170.401 175.976 170.713 176.317 171.112 176.571C171.512 176.824 171.975 176.951 172.502 176.951C172.843 176.951 173.116 176.922 173.321 176.863C173.526 176.805 173.696 176.736 173.833 176.658C174.008 176.561 174.14 176.463 174.228 176.366C174.325 176.268 174.452 176.22 174.608 176.22C174.774 176.22 174.9 176.273 174.988 176.38C175.086 176.488 175.134 176.619 175.134 176.775C175.134 176.951 175.012 177.136 174.769 177.331C174.525 177.526 174.193 177.692 173.774 177.828C173.365 177.965 172.897 178.033 172.37 178.033C171.629 178.033 170.981 177.862 170.425 177.521C169.869 177.17 169.435 176.697 169.123 176.103C168.821 175.498 168.67 174.825 168.67 174.084C168.67 173.343 168.826 172.675 169.138 172.081C169.46 171.486 169.903 171.013 170.469 170.662C171.034 170.311 171.693 170.136 172.443 170.136Z" fill="#60708F"/>
<path d="M229.424 178.033C228.829 178.033 228.288 177.882 227.801 177.58C227.323 177.277 226.947 176.873 226.674 176.366C226.606 176.249 226.572 176.137 226.572 176.029C226.572 175.864 226.635 175.732 226.762 175.635C226.889 175.527 227.016 175.474 227.142 175.474C227.25 175.474 227.347 175.503 227.435 175.561C227.532 175.62 227.615 175.693 227.684 175.781C227.879 176.112 228.122 176.376 228.415 176.571C228.707 176.766 229.044 176.863 229.424 176.863C229.824 176.863 230.175 176.775 230.477 176.6C230.789 176.424 231.033 176.185 231.208 175.883C231.393 175.571 231.486 175.22 231.486 174.83V168.234C231.486 168.069 231.545 167.932 231.662 167.825C231.788 167.708 231.939 167.649 232.115 167.649C232.29 167.649 232.432 167.708 232.539 167.825C232.656 167.932 232.715 168.069 232.715 168.234V174.83C232.715 175.425 232.568 175.966 232.276 176.454C231.993 176.941 231.603 177.326 231.106 177.609C230.618 177.892 230.058 178.033 229.424 178.033ZM241.379 170.253C241.545 170.253 241.681 170.311 241.788 170.428C241.905 170.535 241.964 170.672 241.964 170.838V177.287C241.964 177.453 241.905 177.594 241.788 177.711C241.681 177.828 241.545 177.887 241.379 177.887C241.203 177.887 241.062 177.828 240.955 177.711C240.847 177.594 240.794 177.453 240.794 177.287V175.898L241.072 175.869C241.072 176.083 240.999 176.317 240.852 176.571C240.706 176.824 240.506 177.063 240.253 177.287C239.999 177.502 239.697 177.682 239.346 177.828C239.005 177.965 238.634 178.033 238.234 178.033C237.571 178.033 236.977 177.862 236.45 177.521C235.924 177.17 235.504 176.697 235.192 176.103C234.89 175.508 234.739 174.83 234.739 174.07C234.739 173.299 234.89 172.622 235.192 172.037C235.504 171.442 235.924 170.979 236.45 170.647C236.977 170.306 237.562 170.136 238.205 170.136C238.624 170.136 239.014 170.204 239.375 170.34C239.736 170.477 240.048 170.662 240.311 170.896C240.584 171.13 240.794 171.388 240.94 171.671C241.096 171.954 241.174 172.237 241.174 172.519L240.794 172.432V170.838C240.794 170.672 240.847 170.535 240.955 170.428C241.062 170.311 241.203 170.253 241.379 170.253ZM238.366 176.951C238.854 176.951 239.283 176.824 239.653 176.571C240.033 176.317 240.326 175.976 240.531 175.547C240.745 175.108 240.852 174.616 240.852 174.07C240.852 173.533 240.745 173.051 240.531 172.622C240.326 172.183 240.033 171.842 239.653 171.598C239.283 171.345 238.854 171.218 238.366 171.218C237.888 171.218 237.459 171.34 237.079 171.583C236.709 171.827 236.416 172.164 236.202 172.593C235.987 173.022 235.88 173.514 235.88 174.07C235.88 174.616 235.982 175.108 236.187 175.547C236.401 175.976 236.694 176.317 237.064 176.571C237.445 176.824 237.879 176.951 238.366 176.951ZM247.964 170.136C248.627 170.136 249.148 170.272 249.529 170.545C249.909 170.818 250.177 171.184 250.333 171.642C250.499 172.1 250.582 172.612 250.582 173.178V177.287C250.582 177.453 250.523 177.594 250.406 177.711C250.299 177.828 250.162 177.887 249.997 177.887C249.831 177.887 249.69 177.828 249.573 177.711C249.465 177.594 249.412 177.453 249.412 177.287V173.207C249.412 172.836 249.353 172.505 249.236 172.212C249.129 171.91 248.944 171.671 248.68 171.496C248.427 171.31 248.076 171.218 247.627 171.218C247.218 171.218 246.843 171.31 246.501 171.496C246.16 171.671 245.887 171.91 245.682 172.212C245.478 172.505 245.375 172.836 245.375 173.207V177.287C245.375 177.453 245.317 177.594 245.2 177.711C245.092 177.828 244.956 177.887 244.79 177.887C244.624 177.887 244.483 177.828 244.366 177.711C244.259 177.594 244.205 177.453 244.205 177.287V170.911C244.205 170.745 244.259 170.608 244.366 170.501C244.483 170.384 244.624 170.326 244.79 170.326C244.966 170.326 245.107 170.384 245.214 170.501C245.322 170.608 245.375 170.745 245.375 170.911V171.949L245.083 172.271C245.131 172.017 245.244 171.764 245.419 171.51C245.595 171.247 245.814 171.013 246.077 170.808C246.34 170.604 246.633 170.443 246.955 170.326C247.276 170.199 247.613 170.136 247.964 170.136Z" fill="#8B98B1"/>
<path d="M303.258 177.887C303.083 177.887 302.937 177.828 302.82 177.711C302.712 177.594 302.659 177.453 302.659 177.287V168.234C302.659 168.069 302.712 167.932 302.82 167.825C302.937 167.708 303.078 167.649 303.244 167.649H308.377C308.543 167.649 308.684 167.703 308.801 167.81C308.918 167.917 308.977 168.054 308.977 168.22C308.977 168.376 308.918 168.507 308.801 168.615C308.684 168.722 308.543 168.775 308.377 168.775H303.77L303.858 168.658V172.242L303.785 172.081H307.719C307.885 172.081 308.026 172.139 308.143 172.256C308.26 172.363 308.319 172.5 308.319 172.666C308.319 172.812 308.26 172.944 308.143 173.061C308.026 173.168 307.885 173.221 307.719 173.221H303.756L303.858 173.09V177.287C303.858 177.453 303.799 177.594 303.682 177.711C303.565 177.828 303.424 177.887 303.258 177.887ZM314.078 178.033C313.298 178.033 312.615 177.867 312.03 177.536C311.445 177.204 310.987 176.751 310.655 176.176C310.334 175.591 310.173 174.918 310.173 174.157C310.173 173.309 310.339 172.588 310.67 171.993C311.011 171.388 311.45 170.93 311.986 170.618C312.532 170.296 313.108 170.136 313.712 170.136C314.161 170.136 314.594 170.218 315.014 170.384C315.433 170.55 315.803 170.794 316.125 171.115C316.447 171.427 316.705 171.808 316.9 172.256C317.095 172.695 317.198 173.187 317.207 173.733C317.207 173.889 317.149 174.021 317.032 174.128C316.915 174.235 316.778 174.289 316.622 174.289H310.846L310.582 173.28H316.213L315.979 173.485V173.163C315.94 172.763 315.803 172.422 315.569 172.139C315.345 171.847 315.067 171.622 314.736 171.466C314.414 171.31 314.073 171.232 313.712 171.232C313.42 171.232 313.127 171.286 312.835 171.393C312.552 171.491 312.293 171.657 312.059 171.891C311.835 172.115 311.65 172.407 311.504 172.768C311.367 173.129 311.299 173.563 311.299 174.07C311.299 174.635 311.411 175.132 311.635 175.561C311.869 175.99 312.191 176.332 312.601 176.585C313.01 176.829 313.488 176.951 314.034 176.951C314.375 176.951 314.672 176.907 314.926 176.819C315.179 176.731 315.399 176.624 315.584 176.497C315.769 176.361 315.925 176.224 316.052 176.088C316.179 176 316.301 175.956 316.418 175.956C316.564 175.956 316.681 176.005 316.769 176.103C316.866 176.2 316.915 176.317 316.915 176.454C316.915 176.619 316.837 176.766 316.681 176.892C316.408 177.195 316.037 177.463 315.569 177.697C315.101 177.921 314.604 178.033 314.078 178.033ZM322.768 170.136C323.431 170.136 324.026 170.306 324.553 170.647C325.079 170.979 325.494 171.437 325.796 172.022C326.108 172.607 326.264 173.285 326.264 174.055C326.264 174.825 326.108 175.508 325.796 176.103C325.494 176.697 325.079 177.17 324.553 177.521C324.036 177.862 323.451 178.033 322.798 178.033C322.437 178.033 322.096 177.979 321.774 177.872C321.462 177.755 321.174 177.604 320.911 177.419C320.658 177.224 320.443 177.014 320.268 176.79C320.092 176.556 319.965 176.327 319.887 176.103L320.209 175.898V177.36C320.209 177.526 320.155 177.667 320.048 177.784C319.941 177.901 319.8 177.96 319.624 177.96C319.458 177.96 319.317 177.906 319.2 177.799C319.093 177.682 319.039 177.536 319.039 177.36V167.664C319.039 167.498 319.093 167.357 319.2 167.24C319.317 167.123 319.458 167.064 319.624 167.064C319.8 167.064 319.941 167.123 320.048 167.24C320.155 167.357 320.209 167.498 320.209 167.664V172.168L319.99 172.051C320.058 171.808 320.175 171.574 320.341 171.349C320.516 171.115 320.726 170.911 320.97 170.735C321.223 170.55 321.501 170.404 321.803 170.296C322.115 170.189 322.437 170.136 322.768 170.136ZM322.637 171.218C322.149 171.218 321.715 171.34 321.335 171.583C320.965 171.827 320.672 172.164 320.458 172.593C320.253 173.022 320.151 173.509 320.151 174.055C320.151 174.601 320.253 175.093 320.458 175.532C320.672 175.971 320.965 176.317 321.335 176.571C321.715 176.824 322.149 176.951 322.637 176.951C323.124 176.951 323.553 176.824 323.924 176.571C324.294 176.317 324.587 175.971 324.801 175.532C325.016 175.093 325.123 174.601 325.123 174.055C325.123 173.509 325.016 173.022 324.801 172.593C324.587 172.164 324.294 171.827 323.924 171.583C323.553 171.34 323.124 171.218 322.637 171.218Z" fill="#8B98B1"/>
<path d="M3.375 99.9245C6.75 101.057 14.9469 101.895 23.3734 92.9166C33.9065 81.694 61.7883 42.415 92.1485 64.8601C104.54 75.0317 128.911 72.7575 140.477 64.8601C147.495 60.0682 160.924 52.5865 171.457 58.0019C195.579 70.4035 217.926 31.1923 232.797 14.3584C249.697 -4.77338 292.898 -5.39693 331.312 39.2975" stroke="#8438FF" stroke-width="2.25" stroke-linecap="round"/>
<path d="M23.3734 92.9166C14.9469 101.895 6.75 101.057 3.375 99.9245V127.66H331.312V39.2975C292.898 -5.39693 249.697 -4.77338 232.797 14.3584C217.926 31.1923 195.579 70.4035 171.457 58.0019C160.924 52.5865 147.495 60.0682 140.477 64.8601C128.911 72.7575 104.54 75.0317 92.1485 64.8601C61.7883 42.415 33.9065 81.694 23.3734 92.9166Z" fill="url(#paint0_linear_36_741)" fill-opacity="0.5"/>
<path d="M166.5 56.3396C166.5 59.1584 164.23 61.4375 161.438 61.4375C158.645 61.4375 156.375 59.1584 156.375 56.3396C156.375 53.5208 158.645 51.2417 161.438 51.2417C164.23 51.2417 166.5 53.5208 166.5 56.3396Z" fill="#8438FF" stroke="white" stroke-width="1.125"/>
<rect x="127.688" y="2" width="67.8333" height="32.5786" rx="7.875" fill="#8438FF"/>
<path d="M163.956 38.4443C162.569 40.8613 161.876 42.0698 160.833 42.0698C159.791 42.0698 159.097 40.8613 157.711 38.4443L156.584 36.4796C155.208 34.0824 154.52 32.8838 155.04 31.9859C155.561 31.088 156.942 31.088 159.706 31.088L161.961 31.088C164.724 31.088 166.106 31.088 166.626 31.9859C167.146 32.8838 166.459 34.0824 165.083 36.4796L163.956 38.4443Z" fill="#8438FF"/>
<path d="M148.546 22.368C148.546 23.0587 148.299 23.6513 147.804 24.146C147.309 24.6313 146.675 24.9393 145.9 25.07V26.232C145.9 26.4187 145.835 26.5773 145.704 26.708C145.573 26.8387 145.41 26.904 145.214 26.904C145.027 26.904 144.873 26.8387 144.752 26.708C144.631 26.5773 144.57 26.4187 144.57 26.232V25.112C144.029 25.0653 143.534 24.9487 143.086 24.762C142.647 24.5753 142.227 24.2953 141.826 23.922C141.63 23.754 141.532 23.5627 141.532 23.348C141.532 23.18 141.597 23.0307 141.728 22.9C141.859 22.76 142.013 22.69 142.19 22.69C142.349 22.69 142.484 22.7413 142.596 22.844C142.913 23.124 143.226 23.348 143.534 23.516C143.851 23.6747 144.197 23.7773 144.57 23.824V20.59C143.674 20.3847 142.983 20.0627 142.498 19.624C142.022 19.176 141.784 18.5693 141.784 17.804C141.784 17.0667 142.041 16.4553 142.554 15.97C143.067 15.4847 143.739 15.1907 144.57 15.088V14.374C144.57 14.1873 144.631 14.0287 144.752 13.898C144.883 13.7673 145.046 13.702 145.242 13.702C145.429 13.702 145.583 13.7673 145.704 13.898C145.835 14.0287 145.9 14.1873 145.9 14.374V15.116C146.339 15.1813 146.745 15.298 147.118 15.466C147.491 15.634 147.799 15.8393 148.042 16.082C148.257 16.2687 148.364 16.4693 148.364 16.684C148.364 16.852 148.299 17.0013 148.168 17.132C148.047 17.2627 147.897 17.328 147.72 17.328C147.589 17.328 147.482 17.2907 147.398 17.216C147.23 17.0573 147.011 16.908 146.74 16.768C146.479 16.628 146.199 16.5207 145.9 16.446V19.554C146.796 19.7873 147.459 20.114 147.888 20.534C148.327 20.9447 148.546 21.556 148.546 22.368ZM143.114 17.748C143.114 18.1213 143.235 18.4247 143.478 18.658C143.73 18.882 144.094 19.0687 144.57 19.218V16.39C144.113 16.4647 143.753 16.6233 143.492 16.866C143.24 17.1087 143.114 17.4027 143.114 17.748ZM145.9 23.754C146.292 23.642 146.605 23.4693 146.838 23.236C147.081 23.0027 147.202 22.732 147.202 22.424C147.193 22.0693 147.081 21.7753 146.866 21.542C146.651 21.2993 146.329 21.0987 145.9 20.94V23.754ZM159.583 23.768C159.761 23.768 159.91 23.8287 160.031 23.95C160.153 24.0713 160.213 24.2207 160.213 24.398C160.213 24.5753 160.153 24.72 160.031 24.832C159.91 24.944 159.761 25 159.583 25H154.613C154.427 25 154.273 24.944 154.151 24.832C154.03 24.7107 153.969 24.552 153.969 24.356C153.969 24.188 154.035 24.0293 154.165 23.88L157.287 20.492C158.155 19.568 158.589 18.7513 158.589 18.042C158.589 17.538 158.421 17.1227 158.085 16.796C157.759 16.46 157.339 16.292 156.825 16.292C156.48 16.292 156.149 16.39 155.831 16.586C155.514 16.782 155.257 17.062 155.061 17.426C154.912 17.622 154.735 17.72 154.529 17.72C154.371 17.72 154.221 17.6593 154.081 17.538C153.941 17.4167 153.871 17.2767 153.871 17.118C153.871 17.0153 153.904 16.908 153.969 16.796C154.044 16.684 154.147 16.5533 154.277 16.404C154.585 15.9933 154.977 15.6667 155.453 15.424C155.929 15.1813 156.41 15.06 156.895 15.06C157.521 15.06 158.062 15.186 158.519 15.438C158.977 15.69 159.327 16.0353 159.569 16.474C159.821 16.9127 159.947 17.4167 159.947 17.986C159.947 19.0593 159.369 20.2167 158.211 21.458L156.097 23.768H159.583ZM163.837 15.2C164.024 15.2093 164.173 15.2793 164.285 15.41C164.406 15.5313 164.467 15.6853 164.467 15.872V24.328C164.467 24.5147 164.397 24.6733 164.257 24.804C164.117 24.9347 163.944 25 163.739 25C163.534 25 163.366 24.9347 163.235 24.804C163.104 24.6733 163.039 24.5147 163.039 24.328V17.048L161.807 17.79C161.704 17.8553 161.588 17.888 161.457 17.888C161.27 17.888 161.112 17.818 160.981 17.678C160.85 17.5287 160.785 17.37 160.785 17.202C160.785 17.09 160.818 16.9827 160.883 16.88C160.948 16.7773 161.032 16.6933 161.135 16.628L163.347 15.298C163.478 15.2327 163.641 15.2 163.837 15.2ZM169.865 25.14C169.1 25.14 168.446 24.9253 167.905 24.496C167.364 24.0667 166.953 23.474 166.673 22.718C166.402 21.962 166.267 21.0893 166.267 20.1C166.267 19.1107 166.402 18.238 166.673 17.482C166.953 16.726 167.364 16.1333 167.905 15.704C168.446 15.2747 169.1 15.06 169.865 15.06C170.63 15.06 171.284 15.2747 171.825 15.704C172.366 16.1333 172.772 16.726 173.043 17.482C173.323 18.238 173.463 19.1107 173.463 20.1C173.463 21.0893 173.323 21.962 173.043 22.718C172.772 23.474 172.366 24.0667 171.825 24.496C171.284 24.9253 170.63 25.14 169.865 25.14ZM169.865 23.796C170.546 23.796 171.074 23.474 171.447 22.83C171.83 22.186 172.021 21.276 172.021 20.1C172.021 18.924 171.83 18.014 171.447 17.37C171.074 16.726 170.546 16.404 169.865 16.404C169.184 16.404 168.652 16.726 168.269 17.37C167.896 18.014 167.709 18.924 167.709 20.1C167.709 21.276 167.896 22.186 168.269 22.83C168.652 23.474 169.184 23.796 169.865 23.796ZM178.355 25.14C177.59 25.14 176.937 24.9253 176.395 24.496C175.854 24.0667 175.443 23.474 175.163 22.718C174.893 21.962 174.757 21.0893 174.757 20.1C174.757 19.1107 174.893 18.238 175.163 17.482C175.443 16.726 175.854 16.1333 176.395 15.704C176.937 15.2747 177.59 15.06 178.355 15.06C179.121 15.06 179.774 15.2747 180.315 15.704C180.857 16.1333 181.263 16.726 181.533 17.482C181.813 18.238 181.953 19.1107 181.953 20.1C181.953 21.0893 181.813 21.962 181.533 22.718C181.263 23.474 180.857 24.0667 180.315 24.496C179.774 24.9253 179.121 25.14 178.355 25.14ZM178.355 23.796C179.037 23.796 179.564 23.474 179.937 22.83C180.32 22.186 180.511 21.276 180.511 20.1C180.511 18.924 180.32 18.014 179.937 17.37C179.564 16.726 179.037 16.404 178.355 16.404C177.674 16.404 177.142 16.726 176.759 17.37C176.386 18.014 176.199 18.924 176.199 20.1C176.199 21.276 176.386 22.186 176.759 22.83C177.142 23.474 177.674 23.796 178.355 23.796Z" fill="white"/>
<defs>
<linearGradient id="paint0_linear_36_741" x1="138.938" y1="7.66038" x2="156.591" y2="138.386" gradientUnits="userSpaceOnUse">
<stop stop-color="#8438FF"/>
<stop offset="1" stop-color="white" stop-opacity="0"/>
</linearGradient>
</defs>
</svg>
