<svg width="65" height="64" viewBox="0 0 65 64" fill="none" xmlns="http://www.w3.org/2000/svg">
<path d="M43 24.9766C39.115 24.5916 35.2067 24.3933 31.31 24.3933C29 24.3933 26.69 24.51 24.38 24.7433L22 24.9766" stroke="#9038FF" stroke-width="1.5" stroke-linecap="round" stroke-linejoin="round"/>
<path d="M28.4166 23.7984L28.6733 22.27C28.86 21.1617 29 20.3334 30.9716 20.3334H34.0283C36 20.3334 36.1516 21.2084 36.3266 22.2817L36.5833 23.7984" stroke="#9038FF" stroke-width="1.5" stroke-linecap="round" stroke-linejoin="round"/>
<path d="M40.4916 28.6633L39.7333 40.4117C39.605 42.2433 39.5 43.6667 36.245 43.6667H28.755C25.5 43.6667 25.395 42.2433 25.2666 40.4117L24.5083 28.6633" stroke="#9038FF" stroke-width="1.5" stroke-linecap="round" stroke-linejoin="round"/>
<path d="M30.5516 37.25H34.4366" stroke="#9038FF" stroke-width="1.5" stroke-linecap="round" stroke-linejoin="round"/>
<path d="M29.5834 32.5834H35.4167" stroke="#9038FF" stroke-width="1.5" stroke-linecap="round" stroke-linejoin="round"/>
<rect x="0.75" y="0.25" width="63.5" height="63.5" rx="31.75" stroke="#E0E0E0" stroke-width="0.5"/>
</svg>
