<svg width="44" height="44" viewBox="0 0 44 44" fill="none" xmlns="http://www.w3.org/2000/svg">
<path d="M23 19H17" stroke="#9038FF" stroke-width="1.5" stroke-linecap="round" stroke-linejoin="round"/>
<path d="M32 20.97V23.03C32 23.58 31.56 24.03 31 24.05H29.04C27.96 24.05 26.97 23.26 26.88 22.18C26.82 21.55 27.06 20.96 27.48 20.55C27.85 20.17 28.36 19.95 28.92 19.95H31C31.56 19.97 32 20.42 32 20.97Z" stroke="#9038FF" stroke-width="1.5" stroke-linecap="round" stroke-linejoin="round"/>
<path d="M27.48 20.55C27.06 20.96 26.82 21.55 26.88 22.18C26.97 23.26 27.96 24.05 29.04 24.05H31V25.5C31 28.5 29 30.5 26 30.5H17C14 30.5 12 28.5 12 25.5V18.5C12 15.78 13.64 13.88 16.19 13.56C16.45 13.52 16.72 13.5 17 13.5H26C26.26 13.5 26.51 13.51 26.75 13.55C29.33 13.85 31 15.76 31 18.5V19.95H28.92C28.36 19.95 27.85 20.17 27.48 20.55Z" stroke="#9038FF" stroke-width="1.5" stroke-linecap="round" stroke-linejoin="round"/>
</svg>
